<mxfile host="65bd71144e">
    <diagram id="v7LRN9222ffp2p7ZPEML" name="페이지-1">
        <mxGraphModel dx="708" dy="458" grid="0" gridSize="10" guides="1" tooltips="1" connect="1" arrows="1" fold="1" page="0" pageScale="1" pageWidth="1169" pageHeight="827" background="#ffffff" math="0" shadow="0">
            <root>
                <mxCell id="0"/>
                <mxCell id="1" parent="0"/>
                <mxCell id="73" value="loop" style="shape=umlFrame;whiteSpace=wrap;html=1;fontSize=8;width=40;height=16;fillColor=#60a917;strokeColor=#2D7600;fontColor=#ffffff;" vertex="1" parent="1">
                    <mxGeometry x="480" y="374" width="190" height="136" as="geometry"/>
                </mxCell>
                <mxCell id="30" value="Middle Ware" style="shape=umlLifeline;perimeter=lifelinePerimeter;whiteSpace=wrap;html=1;container=1;collapsible=0;recursiveResize=0;outlineConnect=0;fillColor=#60a917;strokeColor=#2D7600;fontColor=#ffffff;" vertex="1" parent="1">
                    <mxGeometry x="440" y="240" width="120" height="300" as="geometry"/>
                </mxCell>
                <mxCell id="47" value="" style="html=1;points=[];perimeter=orthogonalPerimeter;fillColor=#60a917;strokeColor=#2D7600;fontColor=#ffffff;" vertex="1" parent="30">
                    <mxGeometry x="55" y="174" width="10" height="86" as="geometry"/>
                </mxCell>
                <mxCell id="74" value="" style="html=1;points=[];perimeter=orthogonalPerimeter;fontSize=8;fillColor=#60a917;strokeColor=#2D7600;fontColor=#ffffff;" vertex="1" parent="30">
                    <mxGeometry x="60" y="240" width="10" height="10" as="geometry"/>
                </mxCell>
                <mxCell id="75" value="Create BSM&lt;br&gt;Message" style="edgeStyle=orthogonalEdgeStyle;html=1;align=left;spacingLeft=2;endArrow=block;rounded=0;entryX=1;entryY=0;strokeWidth=1;fontSize=8;fillColor=#60a917;strokeColor=#2D7600;labelBackgroundColor=#FFFFFF;fontColor=#000000;" edge="1" target="74" parent="30">
                    <mxGeometry x="-0.2963" y="-10" relative="1" as="geometry">
                        <mxPoint x="65" y="187" as="sourcePoint"/>
                        <Array as="points">
                            <mxPoint x="65" y="210"/>
                            <mxPoint x="95" y="210"/>
                            <mxPoint x="95" y="240"/>
                        </Array>
                        <mxPoint as="offset"/>
                    </mxGeometry>
                </mxCell>
                <mxCell id="2" value="OBU&lt;br&gt;&lt;font style=&quot;font-size: 6px;&quot;&gt;(sender)&lt;/font&gt;" style="shape=umlLifeline;perimeter=lifelinePerimeter;whiteSpace=wrap;html=1;container=1;collapsible=0;recursiveResize=0;outlineConnect=0;size=40;fillColor=#60a917;strokeColor=#2D7600;fontColor=#ffffff;" vertex="1" parent="1">
                    <mxGeometry x="130" y="240" width="60" height="300" as="geometry"/>
                </mxCell>
                <mxCell id="9" value="" style="html=1;points=[];perimeter=orthogonalPerimeter;fillColor=#60a917;strokeColor=#2D7600;fontColor=#ffffff;" vertex="1" parent="2">
                    <mxGeometry x="25" y="50" width="10" height="20" as="geometry"/>
                </mxCell>
                <mxCell id="3" value="Middle Ware" style="shape=umlLifeline;perimeter=lifelinePerimeter;whiteSpace=wrap;html=1;container=1;collapsible=0;recursiveResize=0;outlineConnect=0;fillColor=#60a917;strokeColor=#2D7600;fontColor=#ffffff;" vertex="1" parent="1">
                    <mxGeometry x="210" y="240" width="110" height="300" as="geometry"/>
                </mxCell>
                <mxCell id="8" value="" style="html=1;points=[];perimeter=orthogonalPerimeter;fillColor=#60a917;strokeColor=#2D7600;fontColor=#ffffff;" vertex="1" parent="3">
                    <mxGeometry x="50" y="50" width="10" height="180" as="geometry"/>
                </mxCell>
                <mxCell id="19" value="" style="html=1;points=[];perimeter=orthogonalPerimeter;fillColor=#60a917;strokeColor=#2D7600;fontColor=#ffffff;" vertex="1" parent="3">
                    <mxGeometry x="55" y="100" width="10" height="40" as="geometry"/>
                </mxCell>
                <mxCell id="20" value="&lt;font style=&quot;font-size: 8px;&quot;&gt;Parsing&lt;/font&gt;" style="edgeStyle=orthogonalEdgeStyle;html=1;align=left;spacingLeft=2;endArrow=block;rounded=0;entryX=1;entryY=0;fillColor=#60a917;strokeColor=#2D7600;labelBackgroundColor=none;fontColor=#000000;" edge="1" target="19" parent="3">
                    <mxGeometry x="0.0667" relative="1" as="geometry">
                        <mxPoint x="60" y="80" as="sourcePoint"/>
                        <Array as="points">
                            <mxPoint x="90" y="80"/>
                            <mxPoint x="90" y="100"/>
                        </Array>
                        <mxPoint as="offset"/>
                    </mxGeometry>
                </mxCell>
                <mxCell id="44" value="" style="html=1;points=[];perimeter=orthogonalPerimeter;fillColor=#60a917;strokeColor=#2D7600;fontColor=#ffffff;" vertex="1" parent="3">
                    <mxGeometry x="55" y="170" width="10" height="40" as="geometry"/>
                </mxCell>
                <mxCell id="45" value="&lt;font style=&quot;font-size: 8px;&quot;&gt;Update&lt;br&gt;Message&lt;/font&gt;" style="edgeStyle=orthogonalEdgeStyle;html=1;align=left;spacingLeft=2;endArrow=block;rounded=0;entryX=1;entryY=0;fillColor=#60a917;strokeColor=#2D7600;labelBackgroundColor=none;fontColor=#000000;" edge="1" target="44" parent="3">
                    <mxGeometry relative="1" as="geometry">
                        <mxPoint x="60" y="150" as="sourcePoint"/>
                        <Array as="points">
                            <mxPoint x="90" y="150"/>
                        </Array>
                    </mxGeometry>
                </mxCell>
                <mxCell id="5" value="&lt;font style=&quot;font-size: 8px;&quot;&gt;Raw Message&lt;/font&gt;" style="html=1;verticalAlign=bottom;endArrow=open;endFill=0;exitX=1.1;exitY=0.993;exitDx=0;exitDy=0;exitPerimeter=0;entryX=-0.16;entryY=0.107;entryDx=0;entryDy=0;entryPerimeter=0;fillColor=#60a917;strokeColor=#2D7600;labelBackgroundColor=none;fontColor=#000000;" edge="1" parent="1" source="9" target="8">
                    <mxGeometry width="80" relative="1" as="geometry">
                        <mxPoint x="420" y="380" as="sourcePoint"/>
                        <mxPoint x="260" y="320" as="targetPoint"/>
                        <Array as="points">
                            <mxPoint x="200" y="310"/>
                            <mxPoint x="220" y="310"/>
                        </Array>
                    </mxGeometry>
                </mxCell>
                <mxCell id="38" value="Vehicle" style="shape=umlLifeline;perimeter=lifelinePerimeter;whiteSpace=wrap;html=1;container=1;collapsible=0;recursiveResize=0;outlineConnect=0;fillColor=#60a917;strokeColor=#2D7600;fontColor=#ffffff;" vertex="1" parent="1">
                    <mxGeometry x="590" y="240" width="100" height="300" as="geometry"/>
                </mxCell>
                <mxCell id="39" value="" style="html=1;points=[];perimeter=orthogonalPerimeter;fillColor=#60a917;strokeColor=#2D7600;fontColor=#ffffff;" vertex="1" parent="38">
                    <mxGeometry x="45" y="174" width="10" height="26" as="geometry"/>
                </mxCell>
                <mxCell id="46" value="&lt;font style=&quot;font-size: 8px;&quot;&gt;Filted&lt;br&gt;Messages&lt;/font&gt;" style="html=1;verticalAlign=bottom;endArrow=open;entryX=-0.12;entryY=-0.015;entryDx=0;entryDy=0;entryPerimeter=0;endFill=0;exitX=1.18;exitY=1;exitDx=0;exitDy=0;exitPerimeter=0;fillColor=#60a917;strokeColor=#2D7600;labelBackgroundColor=#FFFFFF;fontColor=#000000;" edge="1" parent="1" source="59" target="47">
                    <mxGeometry x="0.1345" y="-8" width="80" relative="1" as="geometry">
                        <mxPoint x="370" y="470" as="sourcePoint"/>
                        <mxPoint x="480" y="390" as="targetPoint"/>
                        <Array as="points">
                            <mxPoint x="440" y="470"/>
                            <mxPoint x="470" y="413"/>
                        </Array>
                        <mxPoint as="offset"/>
                    </mxGeometry>
                </mxCell>
                <mxCell id="48" value="&lt;font style=&quot;font-size: 8px;&quot;&gt;Messages&lt;/font&gt;" style="html=1;verticalAlign=bottom;endArrow=block;exitX=1.04;exitY=0.015;exitDx=0;exitDy=0;exitPerimeter=0;entryX=0.02;entryY=0.021;entryDx=0;entryDy=0;entryPerimeter=0;fillColor=#60a917;strokeColor=#2D7600;labelBackgroundColor=none;fontColor=#000000;" edge="1" parent="1" source="47" target="39">
                    <mxGeometry width="80" relative="1" as="geometry">
                        <mxPoint x="550" y="390" as="sourcePoint"/>
                        <mxPoint x="610" y="190" as="targetPoint"/>
                        <Array as="points"/>
                    </mxGeometry>
                </mxCell>
                <mxCell id="49" value="&lt;font style=&quot;font-size: 8px;&quot;&gt;Vehicle Data&lt;/font&gt;" style="html=1;verticalAlign=bottom;endArrow=open;dashed=1;endSize=8;exitX=0.02;exitY=1.014;exitDx=0;exitDy=0;exitPerimeter=0;fillColor=#60a917;strokeColor=#2D7600;labelBackgroundColor=none;fontColor=#000000;" edge="1" parent="1" source="39" target="47">
                    <mxGeometry relative="1" as="geometry">
                        <mxPoint x="755" y="494" as="sourcePoint"/>
                        <mxPoint x="520" y="430" as="targetPoint"/>
                    </mxGeometry>
                </mxCell>
                <mxCell id="53" value="BSM, CIM Messages" style="html=1;verticalAlign=bottom;endArrow=open;endFill=0;entryX=1.04;entryY=-0.018;entryDx=0;entryDy=0;entryPerimeter=0;fillColor=#60a917;strokeColor=#2D7600;labelBackgroundColor=#FFFFFF;fontColor=#000000;" edge="1" parent="1" source="30" target="56">
                    <mxGeometry width="80" relative="1" as="geometry">
                        <mxPoint x="350" y="520" as="sourcePoint"/>
                        <mxPoint x="430" y="520" as="targetPoint"/>
                        <Array as="points">
                            <mxPoint x="210" y="500"/>
                            <mxPoint x="190" y="500"/>
                        </Array>
                    </mxGeometry>
                </mxCell>
                <mxCell id="54" value="OBU&lt;br&gt;&lt;font style=&quot;font-size: 6px;&quot;&gt;(receiver)&lt;/font&gt;" style="shape=umlLifeline;perimeter=lifelinePerimeter;whiteSpace=wrap;html=1;container=1;collapsible=0;recursiveResize=0;outlineConnect=0;size=40;fillColor=#60a917;strokeColor=#2D7600;fontColor=#ffffff;" vertex="1" parent="1">
                    <mxGeometry x="80" y="240" width="50" height="300" as="geometry"/>
                </mxCell>
                <mxCell id="56" value="" style="html=1;points=[];perimeter=orthogonalPerimeter;fontSize=6;fillColor=#60a917;strokeColor=#2D7600;fontColor=#ffffff;" vertex="1" parent="54">
                    <mxGeometry x="20" y="260" width="10" height="22" as="geometry"/>
                </mxCell>
                <mxCell id="58" value="Middle Ware" style="shape=umlLifeline;perimeter=lifelinePerimeter;whiteSpace=wrap;html=1;container=1;collapsible=0;recursiveResize=0;outlineConnect=0;fillColor=#60a917;strokeColor=#2D7600;fontColor=#ffffff;" vertex="1" parent="1">
                    <mxGeometry x="320" y="240" width="120" height="300" as="geometry"/>
                </mxCell>
                <mxCell id="61" value="loop" style="shape=umlFrame;whiteSpace=wrap;html=1;fontSize=6;width=30;height=15;fillColor=#60a917;strokeColor=#2D7600;fontColor=#ffffff;" vertex="1" parent="58">
                    <mxGeometry x="20" y="140" width="100" height="100" as="geometry"/>
                </mxCell>
                <mxCell id="59" value="" style="html=1;points=[];perimeter=orthogonalPerimeter;fillColor=#60a917;strokeColor=#2D7600;fontColor=#ffffff;" vertex="1" parent="58">
                    <mxGeometry x="55" y="150" width="10" height="80" as="geometry"/>
                </mxCell>
                <mxCell id="70" value="" style="html=1;points=[];perimeter=orthogonalPerimeter;fontSize=8;fillColor=#60a917;strokeColor=#2D7600;fontColor=#ffffff;" vertex="1" parent="58">
                    <mxGeometry x="60" y="180" width="10" height="40" as="geometry"/>
                </mxCell>
                <mxCell id="71" value="&lt;span style=&quot;&quot;&gt;Delete&lt;br&gt;time error&lt;br&gt;message&lt;/span&gt;" style="edgeStyle=orthogonalEdgeStyle;html=1;align=left;spacingLeft=2;endArrow=block;rounded=0;entryX=1;entryY=0;strokeWidth=1;fontSize=8;fillColor=#60a917;strokeColor=#2D7600;labelBackgroundColor=none;fontColor=#000000;" edge="1" target="70" parent="58">
                    <mxGeometry relative="1" as="geometry">
                        <mxPoint x="65" y="160" as="sourcePoint"/>
                        <Array as="points">
                            <mxPoint x="80" y="160"/>
                            <mxPoint x="80" y="180"/>
                        </Array>
                    </mxGeometry>
                </mxCell>
                <mxCell id="64" value="&lt;font style=&quot;font-size: 8px;&quot;&gt;Updated&lt;br&gt;Messages&lt;/font&gt;" style="html=1;verticalAlign=bottom;endArrow=open;fontSize=6;exitX=1.24;exitY=1.004;exitDx=0;exitDy=0;exitPerimeter=0;entryX=0.06;entryY=0;entryDx=0;entryDy=0;entryPerimeter=0;endFill=0;fillColor=#60a917;strokeColor=#2D7600;labelBackgroundColor=none;fontColor=#000000;" edge="1" parent="1" source="8" target="59">
                    <mxGeometry x="-0.6215" width="80" relative="1" as="geometry">
                        <mxPoint x="370" y="380" as="sourcePoint"/>
                        <mxPoint x="450" y="380" as="targetPoint"/>
                        <Array as="points">
                            <mxPoint x="320" y="471"/>
                        </Array>
                        <mxPoint as="offset"/>
                    </mxGeometry>
                </mxCell>
            </root>
        </mxGraphModel>
    </diagram>
</mxfile>